<svg xmlns="http://www.w3.org/2000/svg" xmlns:xlink="http://www.w3.org/1999/xlink" width="536" height="490.104" viewBox="0 0 536 490.104">
  <defs>
    <linearGradient id="linear-gradient" y1="0.5" x2="1" y2="0.5" gradientUnits="objectBoundingBox">
      <stop offset="0" stop-color="#515aa7"/>
      <stop offset="1" stop-color="#0b104d"/>
    </linearGradient>
    <linearGradient id="linear-gradient-2" x1="-0.117" y1="0.5" x2="1" y2="0.5" gradientUnits="objectBoundingBox">
      <stop offset="0" stop-color="#007c9b"/>
      <stop offset="1" stop-color="#84b0c9"/>
    </linearGradient>
    <linearGradient id="linear-gradient-3" x1="-0.037" y1="0.5" x2="1.035" y2="0.5" xlink:href="#linear-gradient"/>
  </defs>
  <g id="Logo" transform="translate(-136.435 -2436.35)">
    <path id="路径_8" data-name="路径 8" d="M424.243,2647.8a99.465,99.465,0,0,0-8.924-6.3l-.046-.029c-.14-.092-.284-.18-.428-.269q-.27-.166-.537-.336-.449-.289-.905-.576a144.94,144.94,0,0,1-19.007,16.831,138.445,138.445,0,0,1-41.064,21.182,135.358,135.358,0,0,1-22.648,5.1c-1.923.213-3.845.532-5.777.667l-5.8.4-5.818.1c-1.883-.014-3.733-.081-5.568-.248-7.294-.615-14.43-2.562-19.09-6.4-4.74-3.7-6.848-9.546-5.8-16.24a28.952,28.952,0,0,1,3.433-9.686,40.284,40.284,0,0,1,6.748-8.537c5.41-5.309,12.252-9.632,19.269-13.974a3.838,3.838,0,0,0-3.736-6.7c-7.4,3.71-15.109,7.543-22.127,13.226a47.349,47.349,0,0,0-9.478,10.129,40.45,40.45,0,0,0-5.83,13.192,31.613,31.613,0,0,0,.095,15.3,28.8,28.8,0,0,0,8.216,13.581,39.359,39.359,0,0,0,12.827,7.849,62.884,62.884,0,0,0,13.612,3.521c2.268.352,4.548.581,6.8.739l6.588.3c2.2.027,4.394-.021,6.6-.031s4.39-.23,6.588-.341a144.963,144.963,0,0,0,25.98-4.454A157.878,157.878,0,0,0,406.3,2674a163.793,163.793,0,0,0,24.428-20.467,78.444,78.444,0,0,0-6.423-5.69Z" transform="translate(-9.437 -13.123)" fill="url(#linear-gradient)"/>
    <path id="路径_9" data-name="路径 9" d="M604.981,2584.973a31.271,31.271,0,0,0-9.954-13.929,41.912,41.912,0,0,0-14.344-7.337,66.328,66.328,0,0,0-14.79-2.6c-2.444-.179-4.889-.225-7.294-.2l-7.033.261c-2.339.165-4.672.409-7.013.615s-4.648.636-6.977.949a152.624,152.624,0,0,0-27.231,7.1A163.172,163.172,0,0,0,487.31,2580.2c-.912,2.557-1.856,5.1-2.872,7.621a195.47,195.47,0,0,1-8.741,18.636,190.309,190.309,0,0,1-13.8,22.026,154.175,154.175,0,0,1,13.628-13.749,146.982,146.982,0,0,1,41.779-26.476,142.678,142.678,0,0,1,23.63-7.5c2.026-.4,4.04-.912,6.083-1.229l6.136-.94,6.178-.626c2-.151,3.977-.241,5.944-.223,7.813.02,15.576,1.492,20.877,5.225,5.372,3.571,8.138,9.7,7.624,17.01a31.614,31.614,0,0,1-2.786,10.753,43.568,43.568,0,0,1-6.411,9.806c-5.28,6.206-12.169,11.473-19.242,16.777a4.211,4.211,0,0,0-1.058,5.505,4.068,4.068,0,0,0,5.631,1.389c7.533-4.656,15.393-9.471,22.348-16.222a50.958,50.958,0,0,0,9.173-11.764,44.1,44.1,0,0,0,5.019-14.748A34.7,34.7,0,0,0,604.981,2584.973Z" transform="translate(-22.959 -8.787)" fill="url(#linear-gradient-2)"/>
    <path id="路径_10" data-name="路径 10" d="M486.964,2499.819a89.207,89.207,0,0,0-3.324-14.113,82.341,82.341,0,0,0-5.866-13.5,72.968,72.968,0,0,0-19.444-22.9,61.89,61.89,0,0,0-13.565-7.891,64.2,64.2,0,0,0-14.969-4.18,85.79,85.79,0,0,0-29.2.856,122.8,122.8,0,0,0-26.523,8.382A105.748,105.748,0,0,0,350,2461.292a91.669,91.669,0,0,0-10.408,10.1,82.229,82.229,0,0,0-8.65,11.932,77.223,77.223,0,0,0-10.171,27.792,67.56,67.56,0,0,0,2.154,30.182,78.146,78.146,0,0,0,13.96,25.638,91.023,91.023,0,0,0,9.507,10.244,120.645,120.645,0,0,0,10.441,8.774c12.116,9.1,24.805,15.657,37.069,21.9l1.415.72c1.312.668,2.627,1.336,3.927,2,.663.338,1.332.677,1.991,1.018,6.855,3.552,13.493,7.191,19.749,11.2.334.214.678.416,1.009.632a105.391,105.391,0,0,1,9.445,6.677,84.4,84.4,0,0,1,6.908,6.114c.534.522,1.094,1.02,1.614,1.554a74.776,74.776,0,0,1,13.422,18.3,61.66,61.66,0,0,1,4.031,10.537,53.789,53.789,0,0,1,1.574,11.233l.008.205a3.84,3.84,0,0,0,7.638.369,55.833,55.833,0,0,0,.264-13.489,61.616,61.616,0,0,0-3-13.21,80.932,80.932,0,0,0-13.05-23.419c-.913-1.165-1.887-2.276-2.849-3.4-.093-.108-.191-.212-.284-.32-1.852-2.152-3.758-4.254-5.788-6.234a121.778,121.778,0,0,0-9.953-8.779c-.127-.1-.257-.191-.386-.291-.252-.2-.511-.38-.765-.576-6.288-4.86-12.824-9.172-19.309-13.278-.247-.157-.5-.32-.744-.476-1.008-.639-2.012-1.263-3.019-1.892l-1.24-.772c-12.748-7.928-25.34-15.189-35.576-23.99-11.409-9.786-20.721-21.542-24.006-34.049a41.955,41.955,0,0,1-.729-18.927,52.63,52.63,0,0,1,7.205-18.375,62.607,62.607,0,0,1,13.472-15.139A82.183,82.183,0,0,1,385,2470.8c13.192-5.923,28.249-9.43,40.8-7.553a35.449,35.449,0,0,1,16.749,6.9,46.958,46.958,0,0,1,12.494,14.613,61.57,61.57,0,0,1,6.64,19.159,86.843,86.843,0,0,1,.863,21.609,138.526,138.526,0,0,1-3.682,22.517,182.171,182.171,0,0,1-6.8,22.236q-3.527,9.168-7.956,17.951a175.047,175.047,0,0,1-8.94,15.693c-.1.161-.211.322-.317.481.112.083.223.166.334.252l.073.054c.112.084.224.167.335.255l.04.032a125.75,125.75,0,0,1,10.405,9.181c1.737,1.7,3.5,3.584,5.516,5.893.109-.125.217-.252.326-.376a190.309,190.309,0,0,0,13.8-22.026,195.47,195.47,0,0,0,8.741-18.636c1.016-2.518,1.96-5.064,2.872-7.621q3.059-8.58,5.375-17.4a163.42,163.42,0,0,0,4.857-26.317A112.173,112.173,0,0,0,486.964,2499.819Z" transform="translate(-12.947)" fill="url(#linear-gradient-3)"/>
    <path id="路径_11" data-name="路径 11" d="M184.417,2854.484H165.762a.541.541,0,0,0-.541.541v5.8a.541.541,0,0,1-.541.54h-7.4a.541.541,0,0,1-.541-.54v-68.937a.541.541,0,0,1,.541-.541h27.14a.541.541,0,0,1,.541.541v62.06A.54.54,0,0,1,184.417,2854.484Zm-7.675-36.8v-17.763a.54.54,0,0,0-.541-.541H165.762a.54.54,0,0,0-.541.541v17.763a.541.541,0,0,0,.541.541H176.2A.541.541,0,0,0,176.742,2817.684Zm0,28.222v-19.192a.541.541,0,0,0-.541-.541H165.762a.541.541,0,0,0-.541.541v19.192a.54.54,0,0,0,.541.54H176.2A.54.54,0,0,0,176.742,2845.906Zm56.289-51.223a115.579,115.579,0,0,1-31.133,6.005.541.541,0,0,0-.507.537v13.333a.541.541,0,0,0,.541.54h33.3a.541.541,0,0,1,.54.541v7.046a.541.541,0,0,1-.54.541H223.188a.541.541,0,0,0-.541.54v45.181a.54.54,0,0,1-.541.541h-7.491a.54.54,0,0,1-.541-.541v-45.181a.541.541,0,0,0-.541-.54h-11.6a.541.541,0,0,0-.541.54v2.5q-.923,26.386-13.366,42.293a.544.544,0,0,1-.819.036l-5.139-5.372a.538.538,0,0,1-.032-.707c6.954-8.812,10.611-20.924,11.139-36.251v-32.074a.54.54,0,0,1,.525-.538c13.091-.4,24.829-2.568,35.3-6.6a.539.539,0,0,1,.665.242l3.66,6.621A.542.542,0,0,1,233.031,2794.683Zm158.811,64.446h-6.688a.542.542,0,0,1-.541-.541v-3.295a.54.54,0,0,0-.541-.54h-6.063a.541.541,0,0,0-.541.54v5.171a.541.541,0,0,1-.541.541h-6.688a.541.541,0,0,1-.541-.541v-67.419a.541.541,0,0,1,.541-.541h21.6a.541.541,0,0,1,.541.541v65.543A.541.541,0,0,1,391.841,2859.128Zm-7.229-39.927v-18.745a.54.54,0,0,0-.541-.54h-6.063a.541.541,0,0,0-.541.54V2819.2a.542.542,0,0,0,.541.541h6.063A.541.541,0,0,0,384.612,2819.2Zm0,27.15v-18.209a.54.54,0,0,0-.541-.541h-6.063a.541.541,0,0,0-.541.541v18.209a.541.541,0,0,0,.541.541h6.063A.541.541,0,0,0,384.612,2846.352Zm23.841,22.6h-6.509a.541.541,0,0,1-.541-.541v-25.717a.54.54,0,0,0-.956-.345c-1.4,1.7-2.848,3.375-4.391,4.968a.542.542,0,0,1-.905-.22l-2.052-6.611a.542.542,0,0,1,.115-.52,52.2,52.2,0,0,0,10.989-18.437.537.537,0,0,1,.61-.359l5.956,1.13a.541.541,0,0,1,.405.721c-.248.657-.454,1.26-.661,1.812h10.9a.543.543,0,0,0,.5-.742c-.532-1.318-1.1-2.542-1.68-3.674a.54.54,0,0,1,.4-.783l6.929-.99a.537.537,0,0,1,.588.357c.541,1.591,1.082,3.44,1.622,5.43a.543.543,0,0,0,.522.4h15.925a.541.541,0,0,1,.541.541v5.438a.541.541,0,0,1-.541.541h-14.28a.54.54,0,0,0-.54.541v3.83a.54.54,0,0,0,.54.541h11.958a.541.541,0,0,1,.541.541v4.991a.541.541,0,0,1-.541.541H431.951a.541.541,0,0,0-.54.541v4.009a.54.54,0,0,0,.54.541h12.226a.541.541,0,0,1,.541.541v4.992a.542.542,0,0,1-.541.541H431.951a.54.54,0,0,0-.54.54v4.545a.541.541,0,0,0,.54.541h15.977a.541.541,0,0,1,.541.541v5.528a.542.542,0,0,1-.541.541H409.534a.541.541,0,0,0-.541.54v2.134A.541.541,0,0,1,408.452,2868.953Zm3.305-73.056H396.406a.54.54,0,0,1-.54-.541v-5.527a.54.54,0,0,1,.54-.541H419.26a.54.54,0,0,1,.54.541v25.448c0,3.751-2.857,5.716-8.484,5.716h-4.68a.541.541,0,0,1-.521-.4l-1.3-4.687a.54.54,0,0,1,.547-.684l4.7.231c1.43,0,2.233-.8,2.233-2.412v-1.9a.538.538,0,0,0-.777-.483,154.192,154.192,0,0,1-14.931,6.293.544.544,0,0,1-.708-.358l-1.474-5.086a.54.54,0,0,1,.372-.668c4.539-1.3,8.831-2.768,12.874-4.316a60.6,60.6,0,0,0-10.5-3.593.539.539,0,0,1-.357-.764l1.831-3.661a.543.543,0,0,1,.6-.289,51.059,51.059,0,0,1,10.093,3.266.544.544,0,0,1,.278.7l-1.763,4.248c1.4-.576,2.794-1.151,4.12-1.656a.535.535,0,0,0,.346-.5v-7.84A.542.542,0,0,0,411.758,2795.9Zm-2.764,36v3.83a.541.541,0,0,0,.541.541h13.387a.541.541,0,0,0,.541-.541v-3.83a.541.541,0,0,0-.541-.541H409.534A.541.541,0,0,0,408.993,2831.894Zm.541,15.534h13.387a.541.541,0,0,0,.541-.541v-4.009a.542.542,0,0,0-.541-.541H409.534a.542.542,0,0,0-.541.541v4.009A.541.541,0,0,0,409.534,2847.428Zm0,11.7h13.387a.542.542,0,0,0,.541-.541v-4.545a.541.541,0,0,0-.541-.54H409.534a.541.541,0,0,0-.541.54v4.545A.542.542,0,0,0,409.534,2859.128Zm29.2-63.232H423.556a.54.54,0,0,1-.54-.541v-5.527a.54.54,0,0,1,.54-.541h22.675a.541.541,0,0,1,.541.541v25.538q0,5.625-8.842,5.626h-3.876a.54.54,0,0,1-.52-.4l-1.3-4.68a.541.541,0,0,1,.553-.684l3.8.224c1.786,0,2.679-.8,2.679-2.323v-2.451a.537.537,0,0,0-.768-.487c-4.283,2.02-8.938,3.894-13.964,5.693a.543.543,0,0,1-.7-.354l-1.553-5.175a.541.541,0,0,1,.377-.676c4.087-1.119,7.926-2.318,11.521-3.515a63.7,63.7,0,0,0-10.131-3.245.539.539,0,0,1-.366-.767l1.827-3.655a.545.545,0,0,1,.595-.291,53.231,53.231,0,0,1,9.63,2.927.544.544,0,0,1,.3.707l-1.761,4.322h0l4.658-1.83a.542.542,0,0,0,.343-.5v-7.4A.541.541,0,0,0,438.729,2795.9Zm161.741-7.751c-.66,5.1-1.32,9.968-1.981,14.459a.538.538,0,0,0,.535.615h11.693a.54.54,0,0,1,.541.541v4.192c-.531,14.052-2.81,26.267-6.838,36.559a.539.539,0,0,0,.122.576c3.846,3.856,6.977,7.238,9.469,10.3a.54.54,0,0,1-.011.693l-4.727,5.5a.538.538,0,0,1-.831-.014c-2.1-2.635-4.48-5.413-7.211-8.4a.542.542,0,0,0-.874.1,65.36,65.36,0,0,1-12.247,15.992.543.543,0,0,1-.8-.057l-4.675-5.844a.537.537,0,0,1,.059-.733,55.58,55.58,0,0,0,12.036-15.74.545.545,0,0,0-.1-.635c-3.248-3.24-6.741-6.565-10.477-10.131a.538.538,0,0,1-.153-.519c1.8-7.322,3.435-15.222,4.906-23.621a.544.544,0,0,0-.534-.637h-5.424a.541.541,0,0,1-.541-.541v-7.045a.541.541,0,0,1,.541-.541h6.852a.541.541,0,0,0,.535-.461c.751-5.041,1.423-10.164,2.016-15.441a.54.54,0,0,1,.589-.479l7.043.7A.543.543,0,0,1,600.471,2788.146Zm2.356,23.2h-5.316a.543.543,0,0,0-.533.447c-1.551,8.568-3.1,15.723-4.738,21.465a.538.538,0,0,0,.165.552c1.811,1.585,3.554,3.108,5.118,4.624a.542.542,0,0,0,.891-.206,96.784,96.784,0,0,0,4.955-26.306A.545.545,0,0,0,602.827,2811.348Zm30.856,27.886a60.554,60.554,0,0,0,1.007-6.275.54.54,0,0,1,.593-.478l6.425.689a.545.545,0,0,1,.48.6c-.219,1.87-.443,3.622-.719,5.255a.537.537,0,0,0,.531.629h20.073a.54.54,0,0,1,.541.541v6.063a.541.541,0,0,1-.541.541H639.961a.539.539,0,0,0-.511.374,37.755,37.755,0,0,1-4.881,9.9c-3.775,5.267-10.312,9.414-19.526,12.521a.545.545,0,0,1-.675-.3l-2.524-5.965a.541.541,0,0,1,.329-.722c7.4-2.487,12.836-5.91,16.234-10.355a29.619,29.619,0,0,0,2.676-4.671.541.541,0,0,0-.487-.776H614.57a.541.541,0,0,1-.541-.541V2840.2a.54.54,0,0,1,.541-.541h18.582A.543.543,0,0,0,633.683,2839.234Zm-19.565-35.93v-5.974a.541.541,0,0,1,.541-.541H625.07a.543.543,0,0,0,.495-.765,71.661,71.661,0,0,0-3.362-6.406.54.54,0,0,1,.386-.807l7.135-1.074a.541.541,0,0,1,.56.282,89.27,89.27,0,0,1,3.793,8.427.54.54,0,0,0,.5.343h7.7a.545.545,0,0,0,.48-.286,40.83,40.83,0,0,0,3.385-8.288.537.537,0,0,1,.581-.391l7.192.85a.543.543,0,0,1,.453.706,36.289,36.289,0,0,1-2.892,6.6.542.542,0,0,0,.466.814h8.786a.541.541,0,0,1,.541.541v5.974a.541.541,0,0,1-.541.541H642.7a.541.541,0,0,0-.541.541v5.081a.541.541,0,0,0,.541.54h15.62a.541.541,0,0,1,.541.541v6.064a.541.541,0,0,1-.541.541H642.7a.541.541,0,0,0-.541.54v4.9a.541.541,0,0,0,.541.541h19.014a.541.541,0,0,1,.541.541v6.242a.542.542,0,0,1-.541.541H614.57a.541.541,0,0,1-.541-.541v-6.242a.541.541,0,0,1,.541-.541h19.013a.541.541,0,0,0,.541-.541v-4.9a.541.541,0,0,0-.541-.54H617.517a.541.541,0,0,1-.541-.541v-6.064a.541.541,0,0,1,.541-.541h16.066a.541.541,0,0,0,.541-.54v-5.081a.541.541,0,0,0-.541-.541H614.659A.54.54,0,0,1,614.118,2803.3Zm50.728,59.988-3.682,5.678a.54.54,0,0,1-.8.113,92.558,92.558,0,0,0-19.966-13.173.537.537,0,0,1-.216-.78l3.332-5.074a.546.546,0,0,1,.688-.193,105.615,105.615,0,0,1,20.533,12.708A.543.543,0,0,1,664.846,2863.292Zm-510.889,42.794a19.981,19.981,0,0,0-11.485,3.1,10.264,10.264,0,0,0-4.8,8.994,9.567,9.567,0,0,0,4.983,8.69,77.543,77.543,0,0,0,9.967,3.585,81.252,81.252,0,0,1,8.629,2.917c2.734,1.4,4.132,3.282,4.132,5.712a5.04,5.04,0,0,1-2.917,4.558,15.96,15.96,0,0,1-7.84,1.7c-3.646,0-6.319-.668-8.083-2.006s-2.941-3.521-3.5-6.479a1.079,1.079,0,0,0-1.061-.874h-4.457a1.088,1.088,0,0,0-1.08,1.21c.558,4.855,2.47,8.462,5.785,10.822,2.978,2.067,7.11,3.161,12.4,3.161q8.2,0,12.762-3.282a10.785,10.785,0,0,0,4.557-9.177c0-4.011-1.884-7.11-5.591-9.359-1.7-1.033-5.53-2.431-11.364-4.254a47.879,47.879,0,0,1-7.536-2.674c-2.188-1.155-3.221-2.673-3.221-4.619a4.925,4.925,0,0,1,2.795-4.739,13.645,13.645,0,0,1,6.564-1.276c3.282,0,5.712.607,7.414,1.883a9.041,9.041,0,0,1,3.209,5.274,1.082,1.082,0,0,0,1.045.8h4.491a1.087,1.087,0,0,0,1.076-1.239c-.6-4.11-2.254-7.166-5.021-9.214C162.951,2907.119,159,2906.086,153.956,2906.086Zm28.875,0h-4.273a1.084,1.084,0,0,0-1.085,1.084v42.072a1.085,1.085,0,0,0,1.085,1.085h4.273a1.085,1.085,0,0,0,1.085-1.085V2932.7a10.505,10.505,0,0,1,2.066-6.745,6.29,6.29,0,0,1,5.287-2.614,6.692,6.692,0,0,1,5.53,2.248,10.309,10.309,0,0,1,1.7,6.32v17.329a1.084,1.084,0,0,0,1.084,1.085h4.274a1.084,1.084,0,0,0,1.084-1.085v-18.423c0-4.132-.911-7.293-2.734-9.419-1.944-2.248-4.8-3.342-8.569-3.342a11.006,11.006,0,0,0-5.348,1.216,10.776,10.776,0,0,0-4.375,4.071V2907.17A1.084,1.084,0,0,0,182.832,2906.086Zm33.961.243a4.211,4.211,0,0,0-3.16,1.216,4.032,4.032,0,0,0-1.276,3.1,4.357,4.357,0,0,0,1.276,3.16,4.458,4.458,0,0,0,3.16,1.216,4.561,4.561,0,0,0,3.16-1.216,4.312,4.312,0,0,0,1.337-3.16,4.032,4.032,0,0,0-1.276-3.1A4.351,4.351,0,0,0,216.793,2906.329Zm2.137,12.579h-4.273a1.085,1.085,0,0,0-1.085,1.085v29.249a1.084,1.084,0,0,0,1.085,1.085h4.273a1.085,1.085,0,0,0,1.085-1.085v-29.249A1.086,1.086,0,0,0,218.93,2918.908Zm25.7-.85a10.93,10.93,0,0,0-5.288,1.216,12.062,12.062,0,0,0-4.193,3.524v-2.8a1.085,1.085,0,0,0-1.085-1.085h-4.273a1.085,1.085,0,0,0-1.085,1.085v29.249a1.085,1.085,0,0,0,1.085,1.085h4.273a1.085,1.085,0,0,0,1.085-1.085v-17.751a1.2,1.2,0,0,1,.007-.129,9.482,9.482,0,0,1,2.606-5.951,6.56,6.56,0,0,1,4.8-1.945c4.861,0,7.353,2.674,7.353,8.021v17.754a1.084,1.084,0,0,0,1.085,1.085h4.273a1.085,1.085,0,0,0,1.085-1.085v-18.3C256.355,2922.312,252.405,2918.058,244.626,2918.058Zm353.667,23.64h-.182l-14.848-34.109a1.085,1.085,0,0,0-.995-.651h-6.044a1.085,1.085,0,0,0-1.085,1.085v41.22a1.085,1.085,0,0,0,1.085,1.085h4.455a1.084,1.084,0,0,0,1.085-1.085v-29.908h.243l13.027,30.337a1.086,1.086,0,0,0,1,.656h4.283a1.084,1.084,0,0,0,1-.656l13.027-30.337h.243v29.908a1.085,1.085,0,0,0,1.085,1.085h4.456a1.084,1.084,0,0,0,1.084-1.085v-41.22a1.084,1.084,0,0,0-1.084-1.085h-6.043a1.085,1.085,0,0,0-1,.653Zm55.849-18.414c-2.674-3.524-6.624-5.226-11.729-5.226-4.618,0-8.326,1.58-11,4.8a16.984,16.984,0,0,0-4.132,11.729c0,5.165,1.458,9.237,4.375,12.275,2.674,2.856,6.381,4.315,11,4.315a15.317,15.317,0,0,0,10.391-3.586,13.793,13.793,0,0,0,3.9-5.938,1.08,1.08,0,0,0-1.033-1.416H651.6a1.08,1.08,0,0,0-.964.589,10.009,10.009,0,0,1-2.571,3.483,8.981,8.981,0,0,1-5.47,1.58,7.821,7.821,0,0,1-6.016-2.43,10.8,10.8,0,0,1-2.359-5.83,1.08,1.08,0,0,1,1.076-1.219h21.5a1.09,1.09,0,0,0,1.085-1.139C657.668,2930.221,656.406,2926.226,654.143,2923.284Zm-18.637,8.265a1.091,1.091,0,0,1-1.054-1.344,9.82,9.82,0,0,1,2.372-4.733,7.7,7.7,0,0,1,5.773-2.127q7.039,0,8.378,6.934a1.081,1.081,0,0,1-1.07,1.271Zm32.432-16.53a4.561,4.561,0,0,0,3.16-1.216,4.309,4.309,0,0,0,1.337-3.16,4.03,4.03,0,0,0-1.277-3.1,4.346,4.346,0,0,0-3.221-1.216,4.211,4.211,0,0,0-3.16,1.216,4.032,4.032,0,0,0-1.275,3.1,4.356,4.356,0,0,0,1.275,3.16A4.458,4.458,0,0,0,667.938,2915.019Zm-2.136,35.307h4.273a1.084,1.084,0,0,0,1.084-1.085v-29.249a1.085,1.085,0,0,0-1.084-1.085H665.8a1.085,1.085,0,0,0-1.085,1.085v29.249A1.084,1.084,0,0,0,665.8,2950.327Zm-301.26-42.939,11.061,17.751a.955.955,0,0,0,1.623,0l11-17.748a.956.956,0,0,1,.812-.453h6.267a.955.955,0,0,1,.8,1.48l-16.01,24.413a.957.957,0,0,0-.156.524v16.017a.956.956,0,0,1-.955.956h-5.2a.956.956,0,0,1-.956-.956v-16.017a.957.957,0,0,0-.156-.524l-16.01-24.413a.955.955,0,0,1,.8-1.48h6.268A.954.954,0,0,1,364.542,2907.388Zm61.033,14.134q2.918,3.009,2.918,8.751v20.054H422.05v-4.132a12.275,12.275,0,0,1-4.5,3.586,17.046,17.046,0,0,1-7.109,1.4,11.323,11.323,0,0,1-7.717-2.492,8.163,8.163,0,0,1-2.918-6.442,9.2,9.2,0,0,1,4.132-8.143q3.827-2.734,10.757-2.917l6.866-.182v-1.216c0-4.131-2.248-6.138-6.745-6.138a8.529,8.529,0,0,0-4.618,1.033,5.46,5.46,0,0,0-2.614,3.646h0l-6.866-.546a10.607,10.607,0,0,1,5.1-7.6c2.309-1.457,5.469-2.126,9.48-2.126C419.924,2918.058,423.388,2919.213,425.575,2921.522Zm-10.39,14.646c-5.53.121-8.265,2.065-8.265,5.833a3.24,3.24,0,0,0,1.4,2.735,6,6,0,0,0,3.708,1.154,10.2,10.2,0,0,0,6.745-2.31,7.668,7.668,0,0,0,2.795-6.017v-1.58Zm27.526-17.259v19.142c0,2.552.486,4.376,1.58,5.592,1.094,1.154,2.795,1.761,5.226,1.761a6.485,6.485,0,0,0,4.375-1.944,11.272,11.272,0,0,0,3.039-5.347v-19.2h6.927v31.417h-6.927v-4.071a12.255,12.255,0,0,1-9.846,4.922c-7.535,0-11.3-4.254-11.3-12.7v-19.568Z" transform="translate(0 -24.725)"/>
  </g>
</svg>
