<svg xmlns="http://www.w3.org/2000/svg" xmlns:xlink="http://www.w3.org/1999/xlink" width="323.102" height="251.152" viewBox="0 0 323.102 251.152"><defs><linearGradient id="a" y1="0.5" x2="1" y2="0.5" gradientUnits="objectBoundingBox"><stop offset="0" stop-color="#515aa7"/><stop offset="1" stop-color="#0b104d"/></linearGradient><linearGradient id="b" x1="-0.117" y1="0.5" x2="1" y2="0.5" gradientUnits="objectBoundingBox"><stop offset="0" stop-color="#007c9b"/><stop offset="1" stop-color="#84b0c9"/></linearGradient><linearGradient id="c" x1="-0.037" y1="0.5" x2="1.035" y2="0.5" xlink:href="#a"/></defs><g transform="translate(-1645.339 10218)"><path d="M424.243,2647.8a99.465,99.465,0,0,0-8.924-6.3l-.046-.029c-.14-.092-.284-.18-.428-.269q-.27-.166-.537-.336-.449-.289-.905-.576a144.94,144.94,0,0,1-19.007,16.831,138.445,138.445,0,0,1-41.064,21.182,135.358,135.358,0,0,1-22.648,5.1c-1.923.213-3.845.532-5.777.667l-5.8.4-5.818.1c-1.883-.014-3.733-.081-5.568-.248-7.294-.615-14.43-2.562-19.09-6.4-4.74-3.7-6.848-9.546-5.8-16.24a28.952,28.952,0,0,1,3.433-9.686,40.284,40.284,0,0,1,6.748-8.537c5.41-5.309,12.252-9.632,19.269-13.974a3.838,3.838,0,0,0-3.736-6.7c-7.4,3.71-15.109,7.543-22.127,13.226a47.349,47.349,0,0,0-9.478,10.129,40.45,40.45,0,0,0-5.83,13.192,31.613,31.613,0,0,0,.095,15.3,28.8,28.8,0,0,0,8.216,13.581,39.359,39.359,0,0,0,12.827,7.849,62.884,62.884,0,0,0,13.612,3.521c2.268.352,4.548.581,6.8.739l6.588.3c2.2.027,4.394-.021,6.6-.031s4.39-.23,6.588-.341a144.963,144.963,0,0,0,25.98-4.454A157.878,157.878,0,0,0,406.3,2674a163.793,163.793,0,0,0,24.428-20.467,78.444,78.444,0,0,0-6.423-5.69Z" transform="translate(1375.127 -12667.473)" fill="url(#a)"/><path d="M604.981,2584.973a31.271,31.271,0,0,0-9.954-13.929,41.912,41.912,0,0,0-14.344-7.337,66.328,66.328,0,0,0-14.79-2.6c-2.444-.179-4.889-.225-7.294-.2l-7.033.261c-2.339.165-4.672.409-7.013.615s-4.648.636-6.977.949a152.624,152.624,0,0,0-27.231,7.1A163.172,163.172,0,0,0,487.31,2580.2c-.912,2.557-1.856,5.1-2.872,7.621a195.47,195.47,0,0,1-8.741,18.636,190.309,190.309,0,0,1-13.8,22.026,154.175,154.175,0,0,1,13.628-13.749,146.982,146.982,0,0,1,41.779-26.476,142.678,142.678,0,0,1,23.63-7.5c2.026-.4,4.04-.912,6.083-1.229l6.136-.94,6.178-.626c2-.151,3.977-.241,5.944-.223,7.813.02,15.576,1.492,20.877,5.225,5.372,3.571,8.138,9.7,7.624,17.01a31.614,31.614,0,0,1-2.786,10.753,43.568,43.568,0,0,1-6.411,9.806c-5.28,6.206-12.169,11.473-19.242,16.777a4.211,4.211,0,0,0-1.058,5.505,4.068,4.068,0,0,0,5.631,1.389c7.533-4.656,15.393-9.471,22.348-16.222a50.958,50.958,0,0,0,9.173-11.764,44.1,44.1,0,0,0,5.019-14.748A34.7,34.7,0,0,0,604.981,2584.973Z" transform="translate(1361.605 -12663.136)" fill="url(#b)"/><path d="M486.964,2499.819a89.207,89.207,0,0,0-3.324-14.113,82.341,82.341,0,0,0-5.866-13.5,72.968,72.968,0,0,0-19.444-22.9,61.89,61.89,0,0,0-13.565-7.891,64.2,64.2,0,0,0-14.969-4.18,85.79,85.79,0,0,0-29.2.856,122.8,122.8,0,0,0-26.523,8.382A105.748,105.748,0,0,0,350,2461.292a91.669,91.669,0,0,0-10.408,10.1,82.229,82.229,0,0,0-8.65,11.932,77.223,77.223,0,0,0-10.171,27.792,67.56,67.56,0,0,0,2.154,30.182,78.146,78.146,0,0,0,13.96,25.638,91.023,91.023,0,0,0,9.507,10.244,120.645,120.645,0,0,0,10.441,8.774c12.116,9.1,24.805,15.657,37.069,21.9l1.415.72c1.312.668,2.627,1.336,3.927,2,.663.338,1.332.677,1.991,1.018,6.855,3.552,13.493,7.191,19.749,11.2.334.214.678.416,1.009.632a105.391,105.391,0,0,1,9.445,6.677,84.4,84.4,0,0,1,6.908,6.114c.534.522,1.094,1.02,1.614,1.554a74.776,74.776,0,0,1,13.422,18.3,61.66,61.66,0,0,1,4.031,10.537,53.789,53.789,0,0,1,1.574,11.233l.008.205a3.84,3.84,0,0,0,7.638.369,55.833,55.833,0,0,0,.264-13.489,61.616,61.616,0,0,0-3-13.21,80.932,80.932,0,0,0-13.05-23.419c-.913-1.165-1.887-2.276-2.849-3.4-.093-.108-.191-.212-.284-.32-1.852-2.152-3.758-4.254-5.788-6.234a121.778,121.778,0,0,0-9.953-8.779c-.127-.1-.257-.191-.386-.291-.252-.2-.511-.38-.765-.576-6.288-4.86-12.824-9.172-19.309-13.278-.247-.157-.5-.32-.744-.476-1.008-.639-2.012-1.263-3.019-1.892l-1.24-.772c-12.748-7.928-25.34-15.189-35.576-23.99-11.409-9.786-20.721-21.542-24.006-34.049a41.955,41.955,0,0,1-.729-18.927,52.63,52.63,0,0,1,7.205-18.375,62.607,62.607,0,0,1,13.472-15.139A82.183,82.183,0,0,1,385,2470.8c13.192-5.923,28.249-9.43,40.8-7.553a35.449,35.449,0,0,1,16.749,6.9,46.958,46.958,0,0,1,12.494,14.613,61.57,61.57,0,0,1,6.64,19.159,86.843,86.843,0,0,1,.863,21.609,138.526,138.526,0,0,1-3.682,22.517,182.171,182.171,0,0,1-6.8,22.236q-3.527,9.168-7.956,17.951a175.047,175.047,0,0,1-8.94,15.693c-.1.161-.211.322-.317.481.112.083.223.166.334.252l.073.054c.112.084.224.167.335.255l.04.032a125.75,125.75,0,0,1,10.405,9.181c1.737,1.7,3.5,3.584,5.516,5.893.109-.125.217-.252.326-.376a190.309,190.309,0,0,0,13.8-22.026,195.47,195.47,0,0,0,8.741-18.636c1.016-2.518,1.96-5.064,2.872-7.621q3.059-8.58,5.375-17.4a163.42,163.42,0,0,0,4.857-26.317A112.173,112.173,0,0,0,486.964,2499.819Z" transform="translate(1371.618 -12654.35)" fill="url(#c)"/></g></svg>