<svg xmlns="http://www.w3.org/2000/svg" xmlns:xlink="http://www.w3.org/1999/xlink" width="260" height="83.453" viewBox="0 0 260 83.453">
  <defs>
    <linearGradient id="linear-gradient" y1="0.5" x2="1" y2="0.5" gradientUnits="objectBoundingBox">
      <stop offset="0" stop-color="#007c9b"/>
      <stop offset="1" stop-color="#84b0c9"/>
    </linearGradient>
    <linearGradient id="linear-gradient-2" y1="0.5" x2="1" y2="0.5" gradientUnits="objectBoundingBox">
      <stop offset="0" stop-color="#515aa7"/>
      <stop offset="1" stop-color="#0b104d"/>
    </linearGradient>
  </defs>
  <g id="组_123" data-name="组 123" transform="translate(490.775 -82.035)">
    <g id="组_1" data-name="组 1" transform="translate(-490.776 82.035)">
      <path id="路径_1" data-name="路径 1" d="M-300.419,188.571a10.388,10.388,0,0,0-3.308-4.628,13.925,13.925,0,0,0-4.766-2.438,22.053,22.053,0,0,0-4.915-.864c-.812-.06-1.624-.075-2.423-.066l-2.337.087c-.777.055-1.552.136-2.33.2s-1.544.211-2.318.315a50.737,50.737,0,0,0-9.048,2.358,54.219,54.219,0,0,0-7.654,3.444,56.63,56.63,0,0,0-8.625,5.77c-.228.186-.441.388-.665.578a57.441,57.441,0,0,0-4.707,4.455c-.034.054-.07.107-.105.16l.111.084.024.018c.037.028.075.055.111.084l.013.011a41.792,41.792,0,0,1,3.457,3.051c.577.563,1.165,1.19,1.833,1.958l.008.01.1-.135a51.246,51.246,0,0,1,4.528-4.569,48.852,48.852,0,0,1,13.882-8.8,47.4,47.4,0,0,1,7.852-2.493c.673-.133,1.342-.3,2.021-.408l2.039-.312,2.053-.208c.666-.05,1.321-.08,1.975-.074a12.407,12.407,0,0,1,6.937,1.736,6,6,0,0,1,2.533,5.652,10.5,10.5,0,0,1-.926,3.573,14.461,14.461,0,0,1-2.13,3.258,38.957,38.957,0,0,1-6.394,5.575,1.4,1.4,0,0,0-.351,1.829,1.351,1.351,0,0,0,1.871.461,41.584,41.584,0,0,0,7.426-5.39,16.923,16.923,0,0,0,3.048-3.909,14.657,14.657,0,0,0,1.668-4.9A11.535,11.535,0,0,0-300.419,188.571Z" transform="translate(407.164 -142.106)" fill="url(#linear-gradient)"/>
      <path id="路径_2" data-name="路径 2" d="M-439.593,237.652a33.023,33.023,0,0,0-2.966-2.094l-.015-.009c-.047-.031-.094-.06-.142-.089l-.178-.112-.3-.191a48.14,48.14,0,0,1-6.316,5.593,46,46,0,0,1-13.645,7.039,44.965,44.965,0,0,1-7.526,1.7c-.639.071-1.277.176-1.919.222l-1.928.132-1.934.035c-.626,0-1.24-.027-1.85-.083a11.729,11.729,0,0,1-6.343-2.128,5.5,5.5,0,0,1-1.928-5.4,9.62,9.62,0,0,1,1.141-3.219,13.381,13.381,0,0,1,2.242-2.837,36.449,36.449,0,0,1,6.4-4.644,1.282,1.282,0,0,0,.47-1.657,1.274,1.274,0,0,0-1.711-.568,39.1,39.1,0,0,0-7.352,4.395,15.726,15.726,0,0,0-3.149,3.365,13.448,13.448,0,0,0-1.937,4.384,10.508,10.508,0,0,0,.032,5.084,9.569,9.569,0,0,0,2.73,4.513,13.079,13.079,0,0,0,4.262,2.608,20.889,20.889,0,0,0,4.523,1.17c.753.117,1.511.193,2.258.246l2.189.1c.73.009,1.46-.007,2.192-.011s1.458-.077,2.189-.113a48.142,48.142,0,0,0,8.632-1.48,52.44,52.44,0,0,0,15.916-7.239,54.455,54.455,0,0,0,8.117-6.8,26.085,26.085,0,0,0-2.134-1.891Z" transform="translate(490.776 -171.753)" fill="url(#linear-gradient-2)"/>
      <path id="路径_3" data-name="路径 3" d="M-395.925,103.125a29.646,29.646,0,0,0-1.1-4.689,27.36,27.36,0,0,0-1.949-4.487,24.246,24.246,0,0,0-6.461-7.61,20.574,20.574,0,0,0-4.507-2.622,21.328,21.328,0,0,0-4.974-1.389,28.514,28.514,0,0,0-9.7.285,40.817,40.817,0,0,0-8.813,2.785,35.138,35.138,0,0,0-8,4.927,30.439,30.439,0,0,0-3.459,3.355,27.339,27.339,0,0,0-2.874,3.965,25.661,25.661,0,0,0-3.38,9.235,22.438,22.438,0,0,0,.716,10.029,25.964,25.964,0,0,0,4.639,8.519,30.284,30.284,0,0,0,3.159,3.4,40.174,40.174,0,0,0,3.469,2.915,81.3,81.3,0,0,0,12.317,7.278l.47.24c.436.222.873.444,1.305.665.22.112.443.225.661.338,2.278,1.18,4.484,2.39,6.562,3.723.111.071.225.138.335.21a35.01,35.01,0,0,1,3.139,2.219,28.086,28.086,0,0,1,2.3,2.032c.178.173.364.338.536.516a24.854,24.854,0,0,1,4.46,6.082,20.5,20.5,0,0,1,1.339,3.5,17.9,17.9,0,0,1,.523,3.732l0,.068a1.276,1.276,0,0,0,1.1,1.208,1.276,1.276,0,0,0,1.441-1.086,18.555,18.555,0,0,0,.087-4.482,20.461,20.461,0,0,0-1-4.389,26.9,26.9,0,0,0-4.336-7.782c-.3-.387-.627-.757-.947-1.13-.031-.036-.064-.071-.094-.107-.616-.715-1.249-1.414-1.923-2.071a40.492,40.492,0,0,0-3.307-2.917c-.042-.033-.085-.064-.128-.1-.084-.066-.17-.126-.255-.191-2.089-1.615-4.261-3.048-6.416-4.412l-.248-.158c-.335-.212-.669-.419-1-.629l-.412-.257c-4.236-2.634-8.42-5.047-11.821-7.971-3.791-3.252-6.885-7.158-7.977-11.314a13.95,13.95,0,0,1-.242-6.289,17.483,17.483,0,0,1,2.394-6.105,20.8,20.8,0,0,1,4.477-5.031,27.315,27.315,0,0,1,6.024-3.659c4.383-1.968,9.386-3.133,13.557-2.51a11.781,11.781,0,0,1,5.565,2.293,15.605,15.605,0,0,1,4.151,4.856,20.471,20.471,0,0,1,2.207,6.366,28.887,28.887,0,0,1,.287,7.181,46.1,46.1,0,0,1-1.223,7.482,60.6,60.6,0,0,1-2.259,7.389q-1.172,3.046-2.644,5.965a58.223,58.223,0,0,1-2.97,5.215c-.034.054-.07.107-.105.16l.111.084.024.018c.037.028.075.055.111.084l.013.011a41.792,41.792,0,0,1,3.457,3.051c.577.563,1.165,1.19,1.833,1.958l.109-.125A63.282,63.282,0,0,0-403,135.639a64.938,64.938,0,0,0,2.9-6.193c.337-.837.651-1.682.954-2.532q1.017-2.851,1.786-5.783a54.259,54.259,0,0,0,1.614-8.745A37.279,37.279,0,0,0-395.925,103.125Z" transform="translate(466.782 -82.035)" fill="url(#linear-gradient-2)"/>
    </g>
    <path id="路径_4" data-name="路径 4" d="M-159.079,154.788h-6.2a.18.18,0,0,0-.18.18v1.926a.18.18,0,0,1-.18.18h-2.46a.18.18,0,0,1-.18-.18V133.986a.18.18,0,0,1,.18-.18h9.018a.18.18,0,0,1,.18.18v20.621A.18.18,0,0,1-159.079,154.788Zm-2.55-12.228v-5.9a.18.18,0,0,0-.18-.18h-3.469a.18.18,0,0,0-.18.18v5.9a.18.18,0,0,0,.18.18h3.469A.18.18,0,0,0-161.629,142.559Zm0,9.378V145.56a.18.18,0,0,0-.18-.18h-3.469a.18.18,0,0,0-.18.18v6.377a.18.18,0,0,0,.18.18h3.469A.18.18,0,0,0-161.629,151.937Zm18.7-17.021a38.42,38.42,0,0,1-10.345,2,.179.179,0,0,0-.168.178v4.43a.18.18,0,0,0,.18.18h11.066a.18.18,0,0,1,.18.18v2.341a.18.18,0,0,1-.18.18h-4a.18.18,0,0,0-.18.18v15.012a.18.18,0,0,1-.18.18h-2.489a.18.18,0,0,1-.18-.18V144.581a.18.18,0,0,0-.18-.18h-3.855a.18.18,0,0,0-.18.18v.829q-.307,8.767-4.441,14.053a.181.181,0,0,1-.272.012l-1.708-1.785a.178.178,0,0,1-.011-.234c2.311-2.928,3.526-6.953,3.7-12.046V134.752a.179.179,0,0,1,.174-.179,35.4,35.4,0,0,0,11.729-2.194.178.178,0,0,1,.221.08l1.216,2.2A.18.18,0,0,1-142.925,134.916Zm31.738,22.474h-2.222a.18.18,0,0,1-.18-.18v-1.095a.18.18,0,0,0-.18-.18h-2.015a.18.18,0,0,0-.18.18v1.718a.18.18,0,0,1-.18.18h-2.222a.18.18,0,0,1-.18-.18v-22.4a.18.18,0,0,1,.18-.18h7.178a.18.18,0,0,1,.18.18V157.21A.18.18,0,0,1-111.187,157.39Zm-2.4-13.267v-6.229a.18.18,0,0,0-.18-.18h-2.015a.18.18,0,0,0-.18.18v6.229a.18.18,0,0,0,.18.18h2.015A.18.18,0,0,0-113.59,144.123Zm0,9.022v-6.051a.18.18,0,0,0-.18-.18h-2.015a.18.18,0,0,0-.18.18v6.051a.18.18,0,0,0,.18.18h2.015A.18.18,0,0,0-113.59,153.145Zm7.922,7.51h-2.163a.18.18,0,0,1-.18-.18V151.93a.18.18,0,0,0-.318-.115c-.464.563-.946,1.122-1.459,1.651a.18.18,0,0,1-.3-.073l-.682-2.2a.181.181,0,0,1,.038-.173,17.343,17.343,0,0,0,3.652-6.127.178.178,0,0,1,.2-.119l1.979.376a.18.18,0,0,1,.135.24c-.082.218-.151.419-.219.6h3.624a.18.18,0,0,0,.167-.246c-.176-.438-.367-.845-.558-1.221a.179.179,0,0,1,.134-.26l2.3-.329a.179.179,0,0,1,.2.119c.18.529.359,1.143.539,1.8a.181.181,0,0,0,.174.133h5.292a.18.18,0,0,1,.18.18v1.807a.18.18,0,0,1-.18.18H-97.86a.18.18,0,0,0-.18.18v1.273a.18.18,0,0,0,.18.18h3.974a.18.18,0,0,1,.18.18v1.659a.18.18,0,0,1-.18.18H-97.86a.18.18,0,0,0-.18.18v1.332a.18.18,0,0,0,.18.18H-93.8a.18.18,0,0,1,.18.18v1.659a.18.18,0,0,1-.18.18H-97.86a.18.18,0,0,0-.18.18v1.51a.18.18,0,0,0,.18.18h5.309a.18.18,0,0,1,.18.18v1.837a.18.18,0,0,1-.18.18h-12.757a.18.18,0,0,0-.18.18v.709A.18.18,0,0,1-105.668,160.655Zm1.1-24.275h-5.1a.18.18,0,0,1-.18-.18v-1.836a.18.18,0,0,1,.18-.18h7.594a.18.18,0,0,1,.18.18v8.456c0,1.246-.95,1.9-2.819,1.9h-1.555a.179.179,0,0,1-.173-.132l-.431-1.558a.179.179,0,0,1,.182-.227l1.562.077c.475,0,.742-.267.742-.8v-.632a.179.179,0,0,0-.258-.16,51.117,51.117,0,0,1-4.961,2.091.181.181,0,0,1-.235-.119l-.49-1.69a.179.179,0,0,1,.123-.222c1.508-.433,2.934-.92,4.278-1.434a20.123,20.123,0,0,0-3.49-1.194.179.179,0,0,1-.119-.254l.608-1.216a.181.181,0,0,1,.2-.1,16.946,16.946,0,0,1,3.354,1.085.181.181,0,0,1,.092.234l-.586,1.411c.464-.191.928-.382,1.369-.55a.178.178,0,0,0,.115-.167v-2.6A.18.18,0,0,0-104.569,136.38Zm-.919,11.961v1.273a.18.18,0,0,0,.18.18h4.448a.18.18,0,0,0,.18-.18V148.34a.18.18,0,0,0-.18-.18h-4.448A.18.18,0,0,0-105.488,148.34Zm.18,5.162h4.448a.18.18,0,0,0,.18-.18V151.99a.18.18,0,0,0-.18-.18h-4.448a.18.18,0,0,0-.18.18v1.332A.18.18,0,0,0-105.308,153.5Zm0,3.888h4.448a.18.18,0,0,0,.18-.18V155.7a.18.18,0,0,0-.18-.18h-4.448a.18.18,0,0,0-.18.18v1.51A.18.18,0,0,0-105.308,157.39Zm9.7-21.011h-5.041a.18.18,0,0,1-.18-.18v-1.836a.18.18,0,0,1,.18-.18h7.534a.18.18,0,0,1,.18.18v8.486q0,1.869-2.938,1.87H-97.16a.18.18,0,0,1-.173-.132l-.431-1.555a.18.18,0,0,1,.184-.228l1.262.075c.594,0,.89-.267.89-.772v-.814a.179.179,0,0,0-.255-.162c-1.423.671-2.97,1.294-4.64,1.892a.181.181,0,0,1-.234-.118l-.516-1.72a.18.18,0,0,1,.125-.224c1.358-.372,2.634-.77,3.828-1.168a21.214,21.214,0,0,0-3.367-1.078.179.179,0,0,1-.122-.255l.607-1.214a.181.181,0,0,1,.2-.1,17.715,17.715,0,0,1,3.2.972.181.181,0,0,1,.1.235l-.585,1.436h0l1.548-.608a.18.18,0,0,0,.114-.167v-2.458A.18.18,0,0,0-95.607,136.38Zm33.409-3.635c-.219,1.7-.439,3.312-.658,4.8a.179.179,0,0,0,.178.2h3.885a.18.18,0,0,1,.18.18v1.393a37.217,37.217,0,0,1-2.272,12.148.179.179,0,0,0,.041.191c1.278,1.281,2.318,2.405,3.146,3.421a.179.179,0,0,1,0,.23l-1.57,1.828a.179.179,0,0,1-.276,0c-.7-.875-1.489-1.8-2.4-2.791a.18.18,0,0,0-.29.035A21.718,21.718,0,0,1-66.3,159.7a.181.181,0,0,1-.265-.019l-1.553-1.942a.178.178,0,0,1,.02-.244,18.466,18.466,0,0,0,4-5.23.18.18,0,0,0-.033-.211c-1.079-1.077-2.24-2.181-3.481-3.366a.18.18,0,0,1-.051-.173c.6-2.433,1.141-5.058,1.63-7.849a.18.18,0,0,0-.177-.212h-1.8a.18.18,0,0,1-.18-.18v-2.341a.18.18,0,0,1,.18-.18h2.276a.18.18,0,0,0,.178-.153c.249-1.675.472-3.377.669-5.131a.179.179,0,0,1,.2-.159l2.34.231A.18.18,0,0,1-62.2,132.744Zm.783,7.71h-1.766a.18.18,0,0,0-.177.149c-.515,2.847-1.031,5.224-1.574,7.132a.178.178,0,0,0,.055.183c.6.527,1.181,1.033,1.7,1.537a.18.18,0,0,0,.3-.068,32.163,32.163,0,0,0,1.646-8.741A.181.181,0,0,0-61.415,140.454Zm10.253,9.266a20.275,20.275,0,0,0,.335-2.085.179.179,0,0,1,.2-.159l2.135.229a.181.181,0,0,1,.159.2c-.073.621-.147,1.2-.239,1.746a.179.179,0,0,0,.177.209h6.67a.18.18,0,0,1,.18.18v2.015a.18.18,0,0,1-.18.18h-7.347a.18.18,0,0,0-.17.124,12.54,12.54,0,0,1-1.622,3.289c-1.254,1.75-3.426,3.128-6.488,4.161a.182.182,0,0,1-.224-.1l-.839-1.982a.18.18,0,0,1,.109-.24,10.959,10.959,0,0,0,5.394-3.441,9.877,9.877,0,0,0,.889-1.552.18.18,0,0,0-.162-.258h-5.326a.18.18,0,0,1-.18-.18v-2.015a.18.18,0,0,1,.18-.18h6.175A.181.181,0,0,0-51.162,149.72Zm-6.5-11.939V135.8a.18.18,0,0,1,.18-.18h3.46a.18.18,0,0,0,.164-.254,23.741,23.741,0,0,0-1.117-2.129.179.179,0,0,1,.128-.268l2.371-.357a.179.179,0,0,1,.186.093,29.647,29.647,0,0,1,1.26,2.8.181.181,0,0,0,.167.114h2.56a.182.182,0,0,0,.16-.1,13.559,13.559,0,0,0,1.125-2.754.178.178,0,0,1,.193-.13l2.39.282a.181.181,0,0,1,.151.235,12.043,12.043,0,0,1-.961,2.192.18.18,0,0,0,.155.271h2.919a.18.18,0,0,1,.18.18v1.985a.18.18,0,0,1-.18.18h-5.991a.18.18,0,0,0-.18.18v1.688a.18.18,0,0,0,.18.18h5.19a.18.18,0,0,1,.18.18V142.2a.18.18,0,0,1-.18.18h-5.19a.18.18,0,0,0-.18.18v1.629a.18.18,0,0,0,.18.18h6.318a.18.18,0,0,1,.18.18v2.074a.18.18,0,0,1-.18.18H-57.513a.18.18,0,0,1-.18-.18v-2.074a.18.18,0,0,1,.18-.18H-51.2a.18.18,0,0,0,.18-.18v-1.629a.18.18,0,0,0-.18-.18h-5.338a.18.18,0,0,1-.18-.18v-2.015a.18.18,0,0,1,.18-.18H-51.2a.18.18,0,0,0,.18-.18v-1.688a.18.18,0,0,0-.18-.18h-6.288A.18.18,0,0,1-57.663,137.781Zm16.856,19.933-1.224,1.887a.179.179,0,0,1-.267.038,30.751,30.751,0,0,0-6.634-4.377A.178.178,0,0,1-49,155l1.107-1.686a.181.181,0,0,1,.229-.064,35.068,35.068,0,0,1,6.823,4.222A.181.181,0,0,1-40.808,157.714ZM-169.2,171.934a6.638,6.638,0,0,0-3.816,1.03,3.41,3.41,0,0,0-1.6,2.988,3.178,3.178,0,0,0,1.656,2.888,25.7,25.7,0,0,0,3.312,1.191,26.886,26.886,0,0,1,2.867.969,2.117,2.117,0,0,1,1.373,1.9,1.675,1.675,0,0,1-.969,1.515,5.3,5.3,0,0,1-2.6.565,4.418,4.418,0,0,1-2.685-.666,3.353,3.353,0,0,1-1.164-2.153.358.358,0,0,0-.353-.29h-1.481a.362.362,0,0,0-.359.4,4.834,4.834,0,0,0,1.922,3.6,7.138,7.138,0,0,0,4.119,1.05,7.158,7.158,0,0,0,4.241-1.09,3.585,3.585,0,0,0,1.514-3.049,3.474,3.474,0,0,0-1.858-3.11,21.562,21.562,0,0,0-3.776-1.414,15.878,15.878,0,0,1-2.5-.889,1.7,1.7,0,0,1-1.07-1.535,1.637,1.637,0,0,1,.929-1.575,4.539,4.539,0,0,1,2.181-.424,4.033,4.033,0,0,1,2.464.626,3,3,0,0,1,1.066,1.752.36.36,0,0,0,.347.267h1.492a.362.362,0,0,0,.358-.411A4.384,4.384,0,0,0-165.263,173,6.337,6.337,0,0,0-169.2,171.934Zm9.595,0h-1.42a.36.36,0,0,0-.36.36v13.98a.361.361,0,0,0,.36.36h1.42a.36.36,0,0,0,.36-.36v-5.5a3.491,3.491,0,0,1,.687-2.242,2.09,2.09,0,0,1,1.757-.868,2.223,2.223,0,0,1,1.838.747,3.424,3.424,0,0,1,.566,2.1v5.758a.36.36,0,0,0,.36.36h1.42a.361.361,0,0,0,.36-.36v-6.122a4.705,4.705,0,0,0-.909-3.13,3.554,3.554,0,0,0-2.847-1.111,3.66,3.66,0,0,0-1.777.4,3.585,3.585,0,0,0-1.454,1.353v-5.374A.36.36,0,0,0-159.606,171.934Zm11.285.081a1.4,1.4,0,0,0-1.05.4,1.341,1.341,0,0,0-.424,1.03,1.448,1.448,0,0,0,.424,1.05,1.48,1.48,0,0,0,1.05.4,1.515,1.515,0,0,0,1.05-.4,1.432,1.432,0,0,0,.444-1.05,1.341,1.341,0,0,0-.424-1.03A1.445,1.445,0,0,0-148.32,172.015Zm.71,4.18h-1.42a.36.36,0,0,0-.36.36v9.719a.36.36,0,0,0,.36.36h1.42a.36.36,0,0,0,.36-.36v-9.719A.36.36,0,0,0-147.611,176.194Zm8.538-.283a3.634,3.634,0,0,0-1.757.4,4.012,4.012,0,0,0-1.393,1.172v-.932a.36.36,0,0,0-.36-.36H-144a.36.36,0,0,0-.36.36v9.719a.36.36,0,0,0,.36.36h1.42a.36.36,0,0,0,.36-.36v-5.9c0-.014,0-.029,0-.043a3.151,3.151,0,0,1,.866-1.978,2.179,2.179,0,0,1,1.6-.646c1.616,0,2.443.888,2.443,2.665v5.9a.361.361,0,0,0,.36.36h1.42a.36.36,0,0,0,.36-.36v-6.081C-135.175,177.325-136.488,175.912-139.072,175.912Zm76.151,7.855h-.061l-4.934-11.334a.36.36,0,0,0-.33-.217h-2.009a.36.36,0,0,0-.36.36v13.7a.36.36,0,0,0,.36.36h1.481a.36.36,0,0,0,.36-.36v-9.938h.08L-64,186.416a.36.36,0,0,0,.331.218h1.423a.361.361,0,0,0,.331-.218l4.329-10.08h.081v9.938a.36.36,0,0,0,.36.36h1.48a.36.36,0,0,0,.36-.36v-13.7a.36.36,0,0,0-.36-.36h-2.008a.361.361,0,0,0-.331.217Zm18.557-6.118a4.593,4.593,0,0,0-3.9-1.736,4.506,4.506,0,0,0-3.655,1.6,5.643,5.643,0,0,0-1.373,3.9,5.632,5.632,0,0,0,1.454,4.079,4.79,4.79,0,0,0,3.655,1.434,5.09,5.09,0,0,0,3.453-1.191,4.586,4.586,0,0,0,1.295-1.973.359.359,0,0,0-.344-.47h-1.432a.357.357,0,0,0-.32.2,3.332,3.332,0,0,1-.855,1.157,2.986,2.986,0,0,1-1.817.525,2.6,2.6,0,0,1-2-.808,3.591,3.591,0,0,1-.784-1.937.359.359,0,0,1,.358-.405h7.143a.362.362,0,0,0,.361-.378A6.872,6.872,0,0,0-44.364,177.648Zm-6.193,2.746a.362.362,0,0,1-.351-.446,3.266,3.266,0,0,1,.788-1.573,2.561,2.561,0,0,1,1.919-.707,2.561,2.561,0,0,1,2.783,2.3.359.359,0,0,1-.355.422ZM-39.78,174.9a1.515,1.515,0,0,0,1.05-.4,1.431,1.431,0,0,0,.444-1.05,1.341,1.341,0,0,0-.424-1.03,1.445,1.445,0,0,0-1.07-.4,1.4,1.4,0,0,0-1.05.4,1.341,1.341,0,0,0-.424,1.03,1.448,1.448,0,0,0,.424,1.05A1.48,1.48,0,0,0-39.78,174.9Zm-.71,11.732h1.42a.36.36,0,0,0,.36-.36v-9.719a.36.36,0,0,0-.36-.36h-1.42a.36.36,0,0,0-.36.36v9.719A.36.36,0,0,0-40.49,186.634Zm-79.768-13.208,3.675,5.9a.317.317,0,0,0,.539,0l3.656-5.9a.317.317,0,0,1,.27-.15h2.082a.318.318,0,0,1,.265.492l-5.32,8.112a.316.316,0,0,0-.052.174v5.322a.318.318,0,0,1-.318.318h-1.727a.318.318,0,0,1-.318-.318v-5.322a.316.316,0,0,0-.052-.174l-5.32-8.112a.318.318,0,0,1,.266-.492h2.083A.318.318,0,0,1-120.258,173.425Zm20.28,4.7a4.011,4.011,0,0,1,.969,2.908v6.664h-2.14V186.32a4.077,4.077,0,0,1-1.494,1.191,5.665,5.665,0,0,1-2.363.465,3.762,3.762,0,0,1-2.564-.828,2.714,2.714,0,0,1-.969-2.14,3.056,3.056,0,0,1,1.373-2.706,6.371,6.371,0,0,1,3.574-.969l2.281-.061v-.4c0-1.373-.747-2.039-2.241-2.039a2.835,2.835,0,0,0-1.535.343,1.814,1.814,0,0,0-.869,1.212h0l-2.281-.182a3.524,3.524,0,0,1,1.7-2.524,5.875,5.875,0,0,1,3.15-.707A4.525,4.525,0,0,1-99.978,178.122Zm-3.453,4.866c-1.837.04-2.746.686-2.746,1.938a1.077,1.077,0,0,0,.464.909,1.992,1.992,0,0,0,1.232.384,3.39,3.39,0,0,0,2.241-.768,2.548,2.548,0,0,0,.929-2v-.525Zm9.147-5.735v6.361a2.689,2.689,0,0,0,.525,1.858,2.279,2.279,0,0,0,1.737.586,2.156,2.156,0,0,0,1.454-.646,3.744,3.744,0,0,0,1.01-1.777v-6.381h2.3v10.44h-2.3v-1.353a4.072,4.072,0,0,1-3.271,1.636c-2.5,0-3.756-1.414-3.756-4.22v-6.5Z" transform="translate(-192.49 -30.648)"/>
  </g>
</svg>
